# xmcd
#
# Track frame offsets:
#	150
#	16424
#	27077
#	42982
#	55966
#	68362
#	84114
#	96128
#	110331
#	126614
#	143679
#	156003
#	169894
#	185974
#	199411
#	223014
#	237912
#	253563
#
# Disc length: 3607 seconds
#
# Revision: 0
# Processed by: cddbd v1.4PL0 Copyright (c) Steve Scherf et al.
# Submitted via: EasyCDDAExtractor 4.6.9.1
#
DISCID=fb0e1512
DTITLE=George Strait - Strait Out of the Box - CD3
DYEAR=1995
DGENRE=Country
TTITLE0=Baby Blue
TTITLE1=If You Ain't Lovin' (You Ain't Livin')
TTITLE2=Baby's Gotten Good At Goodbye
TTITLE3=Bigger Man Than Me
TTITLE4=Hollywood Squares
TTITLE5=What's Going On In Your World
TTITLE6=Ace In The Hole
TTITLE7=Love Without End, Amen
TTITLE8=Drinking Champagne
TTITLE9=I've Come To Expect It From You
TTITLE10=If I Know Me
TTITLE11=You Know Me Better Than That
TTITLE12=The Chill Of An Early Fall
TTITLE13=Lovesick Blues
TTITLE14=Milk Cow Blues
TTITLE15=Gone As A Girl Can Get
TTITLE16=So Much Like My Dad
TTITLE17=Trains Make Me Lonesome
EXTD=
EXTT0=
EXTT1=
EXTT2=
EXTT3=
EXTT4=
EXTT5=
EXTT6=
EXTT7=
EXTT8=
EXTT9=
EXTT10=
EXTT11=
EXTT12=
EXTT13=
EXTT14=
EXTT15=
EXTT16=
EXTT17=
PLAYORDER=
